<?xml version="1.0" standalone="no"?>
<svg version="1.1" id="downloadSvg" xmlns="http://www.w3.org/2000/svg" xmlns:xlink="http://www.w3.org/1999/xlink" x="0px" y="0px" viewBox="0 0 1200 1200" enable-background="new 0 0 1200 1200" xml:space="preserve" height="512" width="512">
<g>
	<path fill="#ED59A3" d="M548.342,208.649v62.845h-62.845c-19.54,0-35.299,15.854-35.299,35.335&#10;&#9;&#9;c0,19.525,15.76,35.379,35.299,35.379h62.845v62.815c0,19.54,15.831,35.379,35.392,35.379c19.474,0,35.373-15.839,35.373-35.379&#10;&#9;&#9;v-62.815h62.8c19.54,0,35.371-15.854,35.371-35.379c0-19.481-15.831-35.335-35.371-35.335h-62.8v-62.845&#10;&#9;&#9;c0-19.54-15.899-35.394-35.373-35.394C564.173,173.255,548.342,189.109,548.342,208.649z" style="fill: rgb(89, 225, 237);"/>
	<path fill="#ED59A3" d="M480.172,675.255c-34.106,0-61.726,15.18-61.726,33.915c0,18.75,27.621,33.93,61.726,33.93&#10;&#9;&#9;c34.085,0,61.683-15.18,61.683-33.93C541.855,690.435,514.257,675.255,480.172,675.255z" style="fill: rgb(89, 225, 237);"/>
	<path fill="#ED59A3" d="M726.66,675.255c-34.062,0-61.653,15.18-61.653,33.915c0,18.75,27.591,33.93,61.653,33.93&#10;&#9;&#9;c34.106,0,61.749-15.18,61.749-33.93C788.409,690.435,760.765,675.255,726.66,675.255z" style="fill: rgb(89, 225, 237);"/>
	<path fill="#ED59A3" d="M963.757,578.858l38.151-337.478l-9.528-6.42c-122.004-82.049-254.488-123.673-393.845-123.673&#10;&#9;&#9;c-221.639,0-380.536,104.425-387.212,108.887l-9.711,6.492l38.589,313.114c-32.425,53.323-130.268,248.396-17.507,513.684h236.798&#10;&#9;&#9;c44.403,22.566,93.756,35.247,145.77,35.247c52.059,0,101.391-12.68,145.815-35.247h234.7&#10;&#9;&#9;C985.777,1053.465,1098.977,739.313,963.757,578.858z M605.262,1046.898c-172.921,0-313.134-155.671-313.134-347.672&#10;&#9;&#9;c0-30.084,3.451-59.263,9.944-87.138c57.171,3.569,202.289-0.337,266.656-120.191c2.544,0.234,5.111,0.424,7.678,0.702&#10;&#9;&#9;c37.397,28.109,255.219,188.14,339.679,165.148c1.471,13.616,2.311,27.452,2.311,41.478&#10;&#9;&#9;C918.397,891.226,778.207,1046.898,605.262,1046.898z M926.8,568.197c-62.911-34.443-232.031-116.754-410.489-116.754&#10;&#9;&#9;c-91.511,0-172.316,21.967-240.74,65.361L242.19,245.695c37.185-21.954,176.629-96.47,356.345-96.47&#10;&#9;&#9;c128.031,0,250.152,37.281,363.102,110.876L926.8,568.197z" style="fill: rgb(89, 225, 237);"/>
</g>
</svg>