<?xml version="1.0" encoding="utf-8"?>
<!-- Designed by Vexels.com - 2020 All Rights Reserved - https://vexels.com/terms-and-conditions/  -->
<svg version="1.1" id="Layer_1" xmlns="http://www.w3.org/2000/svg" xmlns:xlink="http://www.w3.org/1999/xlink" x="0px" y="0px"
	 viewBox="0 0 1200 1200" enable-background="new 0 0 1200 1200" xml:space="preserve">
<g>
	<path fill="#FFD898" d="M951.538,756.001c21.751-1.337,47.342-10.226,62.328-25.104c16.553-16.428,25.728-38.329,25.807-61.664
		c0.09-23.329-8.911-45.298-25.338-61.858c-15.102-15.216-40.853-24.096-63.054-25.519c-0.002,8.203-0.016,17.044,0.004,24.8
		c0.018,7.22,0.063,13.488,0.178,17.205c0.08,2.558-0.008,12.049,0,23.781c-4.034,0.144-137.368,0.216-141.403,0.216
		c-98.287,0-209.585-92.507-274.227-155.859c-19.657-19.264-51.276-17.636-69.245,3.213
		c-41.977,48.707-115.191,109.188-217.957,111.79l0.533-22.989c0,0,0-1.587,0-4.331c-0.178-0.006-0.357-0.014-0.533-0.011
		c-23.677,0.088-45.899,9.395-62.579,26.2c-16.678,16.802-25.809,39.094-25.724,62.772c0.126,32.507,17.625,62.283,48.056,78.709
		c12.397,6.691,26.491,9.592,40.577,9.591h0.345c0.337-0.002,0.675-0.062,1.012-0.067l0.122,48.806
		c0.098,25.373,3.036,50.302,8.475,74.51l0.9-4.482c27.346,90.786,88.396,170.692,167.094,229.592l-0.353,0.003
		C477.832,1134.43,535.824,1150,596.052,1150h1.367c60.922-0.231,119.427-15.777,171.226-44.654l-9.848-0.075
		c22.098-16.205,43.14-34.07,62.907-53.721c50.929-51.075,90.427-110.479,117.232-175.095l1.33,6.635
		c6.273-24.573,10.015-49.941,10.907-75.822C951.173,798.452,951.351,779.366,951.538,756.001z M990.385,630.422
		c10.117,10.197,15.661,23.724,15.604,38.088c-0.049,14.368-5.699,27.852-15.892,37.968c-10.191,10.119-23.952,15.799-38.084,15.61
		l-0.045-107.136C966.339,615.009,980.27,620.229,990.385,630.422z M211.082,706.479c-10.193-10.116-15.843-23.601-15.892-37.968
		c-0.055-14.364,5.487-27.892,15.602-38.088c10.117-10.193,23.595-15.838,37.965-15.894l0.408,107.561
		C235.033,722.278,221.275,716.598,211.082,706.479z M404.008,719.588c-9.968-3.807-14.18-15.664-8.889-24.928
		c4.295-7.515,13.392-10.66,21.461-7.532c13.852,5.37,36.704,10.556,60.238,0.14c7.926-3.508,17.843-0.811,22.324,6.608l0.031,0.052
		c5.522,9.141,1.669,21.24-8.264,25.163c-14.16,5.594-29.131,8.394-44.097,8.394C432.305,727.484,417.794,724.854,404.008,719.588z
		 M725.784,943.581H478.22c-8.872,0-16.064-7.193-16.064-16.064s7.193-16.064,16.064-16.064h247.564
		c8.872,0,16.064,7.193,16.064,16.064S734.656,943.581,725.784,943.581z M797.639,717.923c-14.158,5.594-29.121,8.393-44.089,8.393
		c-14.529,0-29.056-2.637-42.856-7.914c-9.94-3.8-14.143-15.622-8.868-24.863c4.3-7.53,13.431-10.589,21.526-7.48
		c13.578,5.214,36.012,10.046,60.679-0.213c7.748-3.222,17.533-0.269,21.871,6.913C811.425,701.9,807.573,713.998,797.639,717.923z"
		/>
	<path fill="#FFD898" d="M249.143,463.96l0.069,17.911c0.161-27.17,1.806-51.355,6.479-73.779
		C251.374,426.018,249.066,444.717,249.143,463.96z"/>
	<path fill="#FFD898" d="M357.831,265.144c8.044-5.086,16.294-9.666,24.693-13.823C373.985,255.43,365.759,260.072,357.831,265.144z
		"/>
	<path fill="#564740" d="M248.631,607.003c102.766-2.602,175.98-63.084,217.957-111.79c17.969-20.848,49.588-22.477,69.245-3.213
		c64.642,63.352,175.94,155.859,274.227,155.859c4.036,0,137.37-0.072,141.403-0.216c-0.008-11.732,0.08-21.224,0-23.781
		c-0.116-3.717-0.161-9.985-0.178-17.205c-0.02-7.756-0.006-16.596-0.004-24.8c0.002-0.724,0.002-1.473,0.002-2.185
		c0-32.134-1.518-59.453-1.63-127.769c-0.012-6.33-0.227-12.458-0.58-18.451c-0.159-2.705-0.422-5.305-0.647-7.943
		c-0.282-3.28-0.573-6.551-0.953-9.728c-0.326-2.716-0.712-5.37-1.11-8.012c-0.473-3.132-0.992-6.211-1.561-9.241
		c-0.424-2.258-0.857-4.505-1.333-6.707c-0.853-3.947-1.81-7.78-2.826-11.549c-0.286-1.059-0.543-2.15-0.839-3.196
		c-20.624-72.381-70.696-111.599-120.499-131.475c-14.735,43.877-42.02,82.991-79.175,111.976
		c-8.542,6.664-19.108,10.249-29.942,10.249h-177.78c-10.836,0-21.402-3.585-29.944-10.249
		c-39.734-30.997-68.254-73.55-82.123-121.157c-12.946,3.871-25.571,8.843-37.816,14.901c-8.399,4.157-16.649,8.737-24.693,13.823
		c-0.173,0.11-0.355,0.205-0.529,0.316c-0.371,0.235-0.741,0.508-1.11,0.746c-2.102,1.351-4.204,2.78-6.307,4.233
		c-1.765,1.22-3.524,2.496-5.287,3.791c-1.006,0.739-2.012,1.496-3.014,2.261c-2.216,1.685-4.416,3.43-6.614,5.238
		c-0.747,0.614-1.49,1.246-2.236,1.875c-2.036,1.722-4.061,3.471-6.075,5.305c-1.843,1.679-3.675,3.402-5.493,5.177
		c-0.602,0.588-1.22,1.116-1.818,1.714c-0.133,0.132-0.247,0.263-0.378,0.395c-3.44,3.451-6.722,6.885-9.844,10.305
		c-30.221,33.117-45.825,65.093-53.435,101.593c-4.673,22.423-6.318,46.609-6.479,73.779c-0.012,1.524-0.047,2.995-0.047,4.539
		c0,39.628,0,80.278,0,93.273c0,2.743,0,4.331,0,4.331L248.631,607.003z"/>
	<path fill="#C02B3F" d="M499.173,693.927l-0.031-0.052c-4.481-7.418-14.398-10.115-22.324-6.608
		c-23.534,10.416-46.385,5.23-60.238-0.14c-8.069-3.128-17.167,0.017-21.461,7.532c-5.291,9.264-1.079,21.121,8.889,24.928
		c13.786,5.266,28.297,7.896,42.805,7.896c14.966,0,29.937-2.799,44.097-8.394C500.842,715.166,504.696,703.068,499.173,693.927z"/>
	<path fill="#C02B3F" d="M784.031,685.846c-24.667,10.259-47.101,5.427-60.679,0.213c-8.095-3.109-17.225-0.05-21.526,7.48
		c-5.275,9.241-1.073,21.063,8.868,24.863c13.799,5.277,28.327,7.914,42.856,7.914c14.968,0,29.931-2.799,44.089-8.393
		c9.934-3.924,13.786-16.023,8.264-25.164C801.565,685.577,791.779,682.623,784.031,685.846z"/>
	<path fill="#C02B3F" d="M210.791,630.422c-10.115,10.197-15.657,23.724-15.602,38.088c0.049,14.368,5.699,27.852,15.892,37.968
		c10.193,10.119,23.952,15.799,38.083,15.61l-0.408-107.561C234.386,614.584,220.908,620.229,210.791,630.422z"/>
	<path fill="#C02B3F" d="M990.097,706.479c10.193-10.116,15.843-23.601,15.892-37.968c0.057-14.364-5.487-27.892-15.604-38.088
		c-10.115-10.193-24.046-15.413-38.418-15.469l0.045,107.136C966.145,722.278,979.905,716.598,990.097,706.479z"/>
	<path fill="#C02B3F" d="M502.462,357.577c8.542,6.664,19.108,10.249,29.944,10.249h177.78c10.835,0,21.4-3.585,29.942-10.249
		c37.155-28.985,64.44-68.099,79.175-111.976c8.095-24.108,12.456-49.633,12.456-75.753C831.76,103.658,778.103,50,711.914,50
		H530.679c-66.189,0-119.848,53.658-119.848,119.848c0,22.82,3.285,45.203,9.509,66.572
		C434.208,284.027,462.728,326.579,502.462,357.577z M550.967,180.409h49.09V131.32c0-11.728,9.507-21.236,21.236-21.236
		s21.236,9.508,21.236,21.236v49.089h49.097c11.729,0,21.238,9.508,21.238,21.237c0,11.728-9.509,21.236-21.238,21.236h-49.097
		v49.089c0,11.729-9.507,21.237-21.236,21.237s-21.236-9.508-21.236-21.237v-49.089h-49.09c-11.729,0-21.236-9.508-21.236-21.236
		C529.732,189.917,539.239,180.409,550.967,180.409z"/>
	<path fill="#FFD898" d="M550.967,222.881h49.09v49.089c0,11.729,9.507,21.237,21.236,21.237s21.236-9.508,21.236-21.237v-49.089
		h49.097c11.729,0,21.238-9.508,21.238-21.236c0-11.729-9.509-21.237-21.238-21.237h-49.097V131.32
		c0-11.728-9.507-21.236-21.236-21.236s-21.236,9.508-21.236,21.236v49.089h-49.09c-11.729,0-21.236,9.508-21.236,21.237
		C529.732,213.373,539.239,222.881,550.967,222.881z"/>
	<path fill="#564740" d="M259.814,875.711l-0.9,4.482l-32.215,160.643c-6.844,34.117,19.408,65.899,54.204,65.624l145.653-1.155
		l0.353-0.003C348.21,1046.403,287.16,966.497,259.814,875.711z"/>
	<path fill="#564740" d="M821.704,1051.55c-19.767,19.652-40.808,37.517-62.907,53.721l9.848,0.075l149.071,1.135
		c34.79,0.265,61.03-31.513,54.188-65.623L940.266,883.09l-1.33-6.635C912.132,941.071,872.633,1000.475,821.704,1051.55z"/>
	<path fill="#C02B3F" d="M725.784,911.452H478.22c-8.872,0-16.064,7.193-16.064,16.064s7.193,16.064,16.064,16.064h247.564
		c8.872,0,16.064-7.193,16.064-16.064S734.656,911.452,725.784,911.452z"/>
</g>
</svg>
